<?xml version="1.0" encoding="UTF-8" standalone="no"?><svg xmlns="http://www.w3.org/2000/svg" xmlns:xlink="http://www.w3.org/1999/xlink" contentScriptType="application/ecmascript" contentStyleType="text/css" height="218px" preserveAspectRatio="none" style="width:551px;height:218px;" version="1.1" viewBox="0 0 551 218" width="551px" zoomAndPan="magnify"><defs><filter height="300%" id="f14qz54ltqd9vw" width="300%" x="-1" y="-1"><feGaussianBlur result="blurOut" stdDeviation="2.0"/><feColorMatrix in="blurOut" result="blurOut2" type="matrix" values="0 0 0 0 0 0 0 0 0 0 0 0 0 0 0 0 0 0 .4 0"/><feOffset dx="4.0" dy="4.0" in="blurOut2" result="blurOut3"/><feBlend in="SourceGraphic" in2="blurOut3" mode="normal"/></filter></defs><g><!--MD5=[fee662a292a0353a69bd162820bae93b]
entity User--><ellipse cx="256" cy="14" fill="#FEFECE" filter="url(#f14qz54ltqd9vw)" rx="8" ry="8" style="stroke:#A80036;stroke-width:1.5;"/><path d="M256,22 L256,49 M243,30 L269,30 M256,49 L243,64 M256,49 L269,64 " fill="none" filter="url(#f14qz54ltqd9vw)" style="stroke:#A80036;stroke-width:1.5;"/><text fill="#000000" font-family="sans-serif" font-size="14" lengthAdjust="spacingAndGlyphs" textLength="31" x="240.5" y="82.4951">User</text><ellipse cx="114.209" cy="176.0418" fill="#FEFECE" filter="url(#f14qz54ltqd9vw)" rx="108.209" ry="24.0418" style="stroke:#A80036;stroke-width:1.5;"/><text fill="#000000" font-family="sans-serif" font-size="14" lengthAdjust="spacingAndGlyphs" textLength="182" x="23.209" y="178.8885">曲を選択して音楽を検索する</text><ellipse cx="398.1446" cy="176.1289" fill="#FEFECE" filter="url(#f14qz54ltqd9vw)" rx="141.1446" ry="30.6289" style="stroke:#A80036;stroke-width:1.5;"/><text fill="#000000" font-family="sans-serif" font-size="14" lengthAdjust="spacingAndGlyphs" textLength="252" x="272.1446" y="178.9756">自分のプロフィールから音楽を検索する</text><!--MD5=[e73e1f17d45c1cefda2bec6f8204ff9e]
link User to 曲を選択して音楽を検索する--><path d="M240.261,60.298 C216.765,81.643 172.137,122.1854 142.727,148.9026 " fill="none" id="User-to-曲を選択して音楽を検索する" style="stroke:#A80036;stroke-width:1.0;"/><polygon fill="#A80036" points="138.861,152.4146,148.2125,149.3244,142.5622,149.0529,142.8338,143.4025,138.861,152.4146" style="stroke:#A80036;stroke-width:1.0;"/><!--MD5=[53559f1fdf9601317609880cdf828fe8]
link User to 自分のプロフィールから音楽を検索する--><path d="M271.739,60.298 C293.439,80.011 333.161,116.0971 362.275,142.5456 " fill="none" id="User-to-自分のプロフィールから音楽を検索する" style="stroke:#A80036;stroke-width:1.0;"/><polygon fill="#A80036" points="366.13,146.0474,362.1572,137.0353,362.4288,142.6857,356.7785,142.9572,366.13,146.0474" style="stroke:#A80036;stroke-width:1.0;"/><!--MD5=[35f6e93e164bedfd2ad781bddbc07d8d]
@startuml
User - -> (曲を選択して音楽を検索する)
User - -> (自分のプロフィールから音楽を検索する)
@enduml

PlantUML version 1.2020.27beta2(Unknown compile time)
(GPL source distribution)
Java Runtime: Java(TM) SE Runtime Environment
JVM: Java HotSpot(TM) 64-Bit Server VM
Default Encoding: UTF-8
Language: en
Country: US
--></g></svg>